<?xml version="1.0" encoding="utf-8"?>
<!-- Generator: Adobe Illustrator 22.0.1, SVG Export Plug-In . SVG Version: 6.00 Build 0)  -->
<svg version="1.1" id="Слой_1" xmlns="http://www.w3.org/2000/svg" xmlns:xlink="http://www.w3.org/1999/xlink" x="0px" y="0px"
	 viewBox="0 0 695.1 76.4" style="enable-background:new 0 0 695.1 76.4;" xml:space="preserve">
<style type="text/css">
	.st0{clip-path:url(#SVGID_2_);fill:#222222;}
	.st1{clip-path:url(#SVGID_4_);fill:#222222;}
	.st2{clip-path:url(#SVGID_6_);fill:#222222;}
	.st3{clip-path:url(#SVGID_8_);fill:#222222;}
	.st4{clip-path:url(#SVGID_10_);fill:#222222;}
	.st5{clip-path:url(#SVGID_12_);fill:#222222;}
	.st6{clip-path:url(#SVGID_14_);fill:#222222;}
	.st7{clip-path:url(#SVGID_16_);fill:#222222;}
	.st8{clip-path:url(#SVGID_18_);fill:#222222;}
	.st9{clip-path:url(#SVGID_20_);fill:#222222;}
	.st10{clip-path:url(#SVGID_22_);fill:#222222;}
	.st11{fill:none;}
	.st12{fill:#028AC5;}
	.st13{fill:#F9D028;}
</style>
<g>
	<defs>
		<rect id="SVGID_1_" width="695.1" height="76.4"/>
	</defs>
	<clipPath id="SVGID_2_">
		<use xlink:href="#SVGID_1_"  style="overflow:visible;"/>
	</clipPath>
	<path class="st0" d="M101.6,74.4h-8.9V11.8h29.6c12.1,0,19.5,7.5,19.5,17.6c0,8.7-5.3,18.6-19.5,18.6h-20.7
		C101.6,48,101.6,74.4,101.6,74.4z M101.6,40.8h17.7c8,0,13.4-2.8,13.4-11.3c0-7.8-5.7-10.4-13-10.4h-18L101.6,40.8L101.6,40.8z"/>
</g>
<g>
	<defs>
		<rect id="SVGID_3_" width="695.1" height="76.4"/>
	</defs>
	<clipPath id="SVGID_4_">
		<use xlink:href="#SVGID_3_"  style="overflow:visible;"/>
	</clipPath>
	<path class="st1" d="M198.8,11.8v7.5h-37.4v18.3h21.4c14.3,0,19.7,10.4,19.7,19.1c0,10.1-7.6,17.6-19.5,17.6h-30.5V11.8H198.8z
		 M161.4,66.9h19c7.3,0,12.9-2.3,12.9-10.2c0-8.4-5.6-11.5-13.6-11.5h-18.4v21.7H161.4z"/>
</g>
<g>
	<defs>
		<rect id="SVGID_5_" width="695.1" height="76.4"/>
	</defs>
	<clipPath id="SVGID_6_">
		<use xlink:href="#SVGID_5_"  style="overflow:visible;"/>
	</clipPath>
	<polygon class="st2" points="222.1,42.1 254,11.8 266.2,11.8 238.9,37.1 266.9,74.4 255.4,74.4 232.4,43 222.1,52.4 222.1,74.4 
		213.3,74.4 213.3,11.8 222.1,11.8 	"/>
</g>
<g>
	<defs>
		<rect id="SVGID_7_" width="695.1" height="76.4"/>
	</defs>
	<clipPath id="SVGID_8_">
		<use xlink:href="#SVGID_7_"  style="overflow:visible;"/>
	</clipPath>
	<rect x="278.1" y="46.4" class="st3" width="22.4" height="6.3"/>
</g>
<g>
	<defs>
		<rect id="SVGID_9_" width="695.1" height="76.4"/>
	</defs>
	<clipPath id="SVGID_10_">
		<use xlink:href="#SVGID_9_"  style="overflow:visible;"/>
	</clipPath>
	<path class="st4" d="M369.9,11.8l-24.6,52.6C340.9,74,336.4,76,331.1,76c-2.3,0-6.5,0.6-8.3,0.2v-7c1.5,0.3,4.9-0.6,7-0.6
		c3.3,0,4.3-0.9,7.2-6l-25.4-50.9h9.5l20.2,42.7l19.1-42.7h9.5V11.8z"/>
</g>
<g>
	<defs>
		<rect id="SVGID_11_" width="695.1" height="76.4"/>
	</defs>
	<clipPath id="SVGID_12_">
		<use xlink:href="#SVGID_11_"  style="overflow:visible;"/>
	</clipPath>
	<polygon class="st5" points="386.8,42.1 418.7,11.8 430.9,11.8 403.6,37.1 431.7,74.4 420.2,74.4 397.2,43 386.8,52.4 386.8,74.4 
		378,74.4 378,11.8 386.8,11.8 	"/>
</g>
<g>
	<defs>
		<rect id="SVGID_13_" width="695.1" height="76.4"/>
	</defs>
	<clipPath id="SVGID_14_">
		<use xlink:href="#SVGID_13_"  style="overflow:visible;"/>
	</clipPath>
	<path class="st6" d="M447.9,74.4H439V11.8h29.6c12.1,0,19.5,7.5,19.5,17.6c0,8.7-5.3,18.6-19.5,18.6h-20.7V74.4z M447.9,40.8h17.6
		c8,0,13.4-2.8,13.4-11.3c0-7.8-5.7-10.4-13-10.4h-18V40.8z"/>
</g>
<g>
	<defs>
		<rect id="SVGID_15_" width="695.1" height="76.4"/>
	</defs>
	<clipPath id="SVGID_16_">
		<use xlink:href="#SVGID_15_"  style="overflow:visible;"/>
	</clipPath>
	<path class="st7" d="M500.8,56.1l-6.9,18.3h-9.1l24.7-62.5h10l23.7,62.5h-9.7L527,56.1C527,56.1,500.8,56.1,500.8,56.1z
		 M523.9,48.7l-9.7-27.6H514l-10.5,27.6H523.9z"/>
</g>
<g>
	<defs>
		<rect id="SVGID_17_" width="695.1" height="76.4"/>
	</defs>
	<clipPath id="SVGID_18_">
		<use xlink:href="#SVGID_17_"  style="overflow:visible;"/>
	</clipPath>
	<path class="st8" d="M546,0h8.1v6.8H546V0z M561.6,74.4h-8.9V11.8h8.9V74.4z M560.4,0h8.1v6.8h-8.1V0z"/>
</g>
<g>
	<defs>
		<rect id="SVGID_19_" width="695.1" height="76.4"/>
	</defs>
	<clipPath id="SVGID_20_">
		<use xlink:href="#SVGID_19_"  style="overflow:visible;"/>
	</clipPath>
	<polygon class="st9" points="585.4,37.7 619.8,37.7 619.8,11.8 628.6,11.8 628.6,74.4 619.8,74.4 619.8,45.2 585.4,45.2 
		585.4,74.4 576.6,74.4 576.6,11.8 585.4,11.8 	"/>
</g>
<g>
	<defs>
		<rect id="SVGID_21_" width="695.1" height="76.4"/>
	</defs>
	<clipPath id="SVGID_22_">
		<use xlink:href="#SVGID_21_"  style="overflow:visible;"/>
	</clipPath>
	<path class="st10" d="M652.6,56.1l-6.9,18.3h-9.1l24.7-62.5h10L695,74.4h-9.7l-6.5-18.3C678.8,56.1,652.6,56.1,652.6,56.1z
		 M675.7,48.7L666,21.1h-0.2l-10.5,27.6H675.7z"/>
</g>
<rect x="6.7" y="11.7" class="st11" width="62.7" height="62.7"/>
<g>
	<path class="st12" d="M0.8,74.3v0.3h17.6V42.4C8.2,54.4,3,67.1,0.8,74.3"/>
	<path class="st13" d="M42,19.2v-7.1h-20v21.1C27.4,28,34,23.1,42,19.2"/>
	<path class="st13" d="M18.4,36.7V12.1H0.5l0.1,54.3C3.7,56.6,9.8,45.9,18.4,36.7"/>
	<path class="st13" d="M62.5,12.1H45.4v5.5C50.5,15.3,56.3,13.5,62.5,12.1"/>
	<path class="st12" d="M63,16.1c-6.5,1.4-12.3,3.3-17.6,5.8v52.7H63V16.1z"/>
	<path class="st12" d="M21.9,38.6v36h20v-51C33.9,27.9,27.3,33,21.9,38.6"/>
</g>
<rect x="0.5" y="12.1" class="st11" width="62.5" height="62.5"/>
</svg>
