<?xml version="1.0" encoding="utf-8"?>
<!-- Generator: Adobe Illustrator 16.0.0, SVG Export Plug-In . SVG Version: 6.00 Build 0)  -->
<!DOCTYPE svg PUBLIC "-//W3C//DTD SVG 1.1//EN" "http://www.w3.org/Graphics/SVG/1.1/DTD/svg11.dtd">
<svg version="1.1" id="Слой_1" xmlns="http://www.w3.org/2000/svg" xmlns:xlink="http://www.w3.org/1999/xlink" x="0px" y="0px"
	 width="31px" height="31px" viewBox="0 0 31 31" enable-background="new 0 0 31 31" xml:space="preserve">
<g>
	<defs>
		<rect id="SVGID_1_" width="31" height="31"/>
	</defs>
	<clipPath id="SVGID_2_">
		<use xlink:href="#SVGID_1_"  overflow="visible"/>
	</clipPath>
	<path clip-path="url(#SVGID_2_)" fill="#1DA1F2" d="M2,0h27c1.105,0,2,0.895,2,2v27c0,1.105-0.895,2-2,2H2c-1.105,0-2-0.895-2-2V2
		C0,0.895,0.895,0,2,0"/>
	<path clip-path="url(#SVGID_2_)" fill="#FFFFFF" d="M15.256,13.4c0,0,0.237-3.348,2.571-3.377c1.899-0.025,2.264,0.838,2.264,0.838
		c0.574-0.175,1.104-0.469,1.558-0.862c-0.041,0.559-0.266,1.089-0.638,1.508c0.361-0.002,0.711-0.129,0.99-0.359
		c-0.148,0.546-0.527,1-1.038,1.244c0.119,2.093-0.441,4.168-1.6,5.917c-1.7,2.47-4.792,2.653-6.488,2.675
		c-1.357-0.08-2.679-0.467-3.867-1.127c0,0,2.573,0.031,3.725-0.811c-0.912-0.624-1.766-1.329-2.55-2.106
		c0.311,0.025,0.624-0.007,0.923-0.094c-0.823-0.871-1.529-1.846-2.1-2.9c0.318,0.063,0.645,0.08,0.968,0.05
		c0,0-1.5-2.435-0.79-4.015C9.184,9.985,11.719,13.187,15.256,13.4"/>
</g>
</svg>
