<?xml version="1.0" encoding="utf-8"?>
<!-- Generator: Adobe Illustrator 19.0.1, SVG Export Plug-In . SVG Version: 6.00 Build 0)  -->
<svg version="1.1" id="social.svg" xmlns="http://www.w3.org/2000/svg" xmlns:xlink="http://www.w3.org/1999/xlink" x="0px" y="0px"
	 viewBox="43 341.8 31 31" style="enable-background:new 43 341.8 31 31;" xml:space="preserve">
<style type="text/css">
	.st0{fill:#7D3DAF;}
	.st1{fill:#FFFFFF;}
</style>
<g>
	<path class="st0" d="M45,341.8h27c1.1,0,2,0.9,2,2v27c0,1.1-0.9,2-2,2H45c-1.1,0-2-0.9-2-2v-27C43,342.7,43.9,341.8,45,341.8z"/>
	<g>
		<path class="st1" d="M65.1,353.6L65.1,353.6c-0.3-1.4-1.8-2.8-3.2-3.1l0,0c-2.2-0.4-4.5-0.4-6.7,0l0,0c-1.4,0.3-2.9,1.7-3.2,3.1
			l0,0c-0.4,1.9-0.4,3.8,0,5.6l0,0c0.3,1.3,1.7,2.6,3,3v1.5c0,0.5,0.7,0.8,1,0.4l1.5-1.6c0.3,0,0.7,0,1,0c1.1,0,2.2-0.1,3.3-0.3l0,0
			c1.4-0.3,2.9-1.7,3.2-3.1l0,0C65.5,357.4,65.5,355.5,65.1,353.6z M63.9,359c-0.2,0.9-1.4,2-2.3,2.2c-1.2,0.2-2.4,0.3-3.6,0.3
			c0,0,0,0-0.1,0c-0.2,0.2-1.1,1.1-1.1,1.1l-1.2,1.2c-0.1,0.1-0.2,0-0.2-0.1v-2.5c0,0,0-0.1-0.1-0.1c0,0,0,0,0,0
			c-0.9-0.2-2-1.3-2.3-2.2c-0.4-1.7-0.4-3.4,0-5.1c0.2-0.9,1.4-2,2.3-2.2c2.1-0.4,4.1-0.4,6.2,0c0.9,0.2,2,1.3,2.3,2.2
			C64.2,355.6,64.2,357.3,63.9,359z"/>
		<path class="st1" d="M60.5,360.1c-0.1,0-0.3-0.1-0.4-0.1c-1.3-0.5-2.4-1.2-3.4-2.2c-0.5-0.6-0.9-1.3-1.3-2c-0.2-0.3-0.3-0.7-0.4-1
			c-0.1-0.3,0.1-0.6,0.3-0.9c0.2-0.2,0.4-0.4,0.7-0.5c0.2-0.1,0.4,0,0.6,0.1c0.3,0.4,0.6,0.8,0.9,1.2c0.1,0.3,0.1,0.6-0.2,0.8
			c-0.1,0-0.1,0.1-0.2,0.1c-0.1,0-0.1,0.1-0.1,0.1c-0.1,0.1-0.1,0.2,0,0.4c0.3,0.9,0.9,1.6,1.8,2c0.1,0.1,0.3,0.1,0.5,0.1
			c0.3,0,0.4-0.3,0.6-0.5c0.2-0.2,0.4-0.2,0.6,0c0.2,0.1,0.4,0.3,0.6,0.4c0.2,0.1,0.4,0.3,0.6,0.4c0.2,0.2,0.2,0.4,0.1,0.6
			c-0.2,0.4-0.4,0.7-0.8,0.9C60.7,360.1,60.6,360.1,60.5,360.1C60.3,360.1,60.6,360.1,60.5,360.1z"/>
		<path class="st1" d="M58.5,352.9c1.7,0,3,1.1,3.3,2.8c0,0.3,0.1,0.6,0.1,0.8c0,0.1-0.1,0.2-0.2,0.2c-0.1,0-0.2-0.1-0.2-0.2
			c0-0.2,0-0.5-0.1-0.7c-0.2-1.2-1.2-2.3-2.4-2.5c-0.2,0-0.4,0-0.6-0.1c-0.1,0-0.3,0-0.3-0.2C58.2,353,58.3,352.9,58.5,352.9
			C58.4,352.9,58.5,352.9,58.5,352.9C60.2,353,58.5,352.9,58.5,352.9z"/>
		<path class="st1" d="M61,356.2c0,0,0,0.1,0,0.1c0,0.2-0.3,0.2-0.4,0c0,0,0-0.1,0-0.2c0-0.4-0.1-0.7-0.3-1
			c-0.2-0.3-0.5-0.6-0.8-0.7c-0.2-0.1-0.4-0.2-0.6-0.2c-0.1,0-0.2,0-0.3,0c-0.1,0-0.2-0.1-0.2-0.2c0-0.1,0.1-0.2,0.2-0.2
			c0.4,0,0.7,0.1,1.1,0.3c0.7,0.4,1.1,0.9,1.2,1.7c0,0,0,0.1,0,0.1C61,356,61,356.1,61,356.2C61,356.2,61,356.1,61,356.2z"/>
		<path class="st1" d="M60,356.2c-0.1,0-0.2-0.1-0.2-0.2c0-0.1,0-0.2,0-0.3c0-0.2-0.1-0.3-0.3-0.4c-0.1,0-0.1-0.1-0.2-0.1
			c-0.1,0-0.2,0-0.3,0c-0.1,0-0.2-0.1-0.2-0.2c0-0.1,0.1-0.2,0.2-0.2c0.6,0,1.1,0.4,1.2,1.1c0,0.1,0,0.1,0,0.2
			C60.1,356.1,60.1,356.2,60,356.2C59.9,356.2,60.1,356.2,60,356.2z"/>
	</g>
</g>
</svg>
