<?xml version="1.0" encoding="utf-8"?>
<!-- Generator: Adobe Illustrator 19.0.1, SVG Export Plug-In . SVG Version: 6.00 Build 0)  -->
<svg version="1.1" id="Слой_1" xmlns="http://www.w3.org/2000/svg" xmlns:xlink="http://www.w3.org/1999/xlink" x="0px" y="0px"
	 viewBox="0 0 31 31" style="enable-background:new 0 0 31 31;" xml:space="preserve">
<style type="text/css">
	.st0{fill:#54B848;}
	.st1{fill:#FFFFFF;}
</style>
<g>
	<path class="st0" d="M2,0h27c1.1,0,2,0.9,2,2v27c0,1.1-0.9,2-2,2H2c-1.1,0-2-0.9-2-2V2C0,0.9,0.9,0,2,0z"/>
	<g>
		<path class="st1" d="M8.4,22.6l1-3.5c-0.6-1.1-1-2.3-1-3.6c0-3.9,3.2-7.1,7.1-7.1s7.1,3.2,7.1,7.1s-3.2,7.1-7.1,7.1
			c-1.2,0-2.4-0.3-3.5-0.9L8.4,22.6z M12.2,20.4l0.2,0.1c0.9,0.6,2,0.9,3.1,0.9c3.2,0,5.9-2.6,5.9-5.9s-2.6-5.9-5.9-5.9
			s-5.9,2.6-5.9,5.9c0,1.1,0.3,2.2,0.9,3.2l0.1,0.2l-0.6,2L12.2,20.4z"/>
		<path class="st1" d="M13.5,12.2l-0.5,0c-0.1,0-0.3,0-0.4,0.1c-0.2,0.2-0.6,0.6-0.7,1.1c-0.2,0.7,0.1,1.6,0.7,2.5s1.9,2.3,4,2.9
			c0.7,0.2,1.2,0.1,1.7-0.2c0.3-0.2,0.6-0.6,0.6-0.9l0.1-0.3c0-0.1,0-0.2-0.1-0.3l-1.6-0.7c-0.1,0-0.2,0-0.3,0.1l-0.6,0.8
			c0,0.1-0.1,0.1-0.2,0.1c-0.4-0.1-1.8-0.7-2.6-2.2c0-0.1,0-0.1,0-0.2l0.6-0.7c0.1-0.1,0.1-0.2,0-0.2l-0.7-1.6
			C13.7,12.3,13.6,12.2,13.5,12.2z"/>
	</g>
</g>
</svg>
