<?xml version="1.0" encoding="utf-8"?>
<!-- Generator: Adobe Illustrator 16.0.0, SVG Export Plug-In . SVG Version: 6.00 Build 0)  -->
<!DOCTYPE svg PUBLIC "-//W3C//DTD SVG 1.1//EN" "http://www.w3.org/Graphics/SVG/1.1/DTD/svg11.dtd">
<svg version="1.1" id="Слой_1" xmlns="http://www.w3.org/2000/svg" xmlns:xlink="http://www.w3.org/1999/xlink" x="0px" y="0px"
	 width="31px" height="31px" viewBox="0 0 31 31" enable-background="new 0 0 31 31" xml:space="preserve">
<g>
	<defs>
		<rect id="SVGID_1_" width="31" height="31"/>
	</defs>
	<clipPath id="SVGID_2_">
		<use xlink:href="#SVGID_1_"  overflow="visible"/>
	</clipPath>
	<path clip-path="url(#SVGID_2_)" fill="#3B5998" d="M2,0h27c1.105,0,2,0.895,2,2v27c0,1.105-0.895,2-2,2H2c-1.105,0-2-0.895-2-2V2
		C0,0.895,0.895,0,2,0"/>
	<path clip-path="url(#SVGID_2_)" fill="#FFFFFF" d="M17.988,10.98L18.3,9c-0.799-0.054-1.602-0.048-2.399,0.018
		c-0.558,0.074-1.066,0.354-1.427,0.784c-0.341,0.461-0.509,1.027-0.477,1.6v2.592l-2-0.015v2.007l2,0.007v6l2.013-0.005v-6h2.374
		l0.311-2.007H16.01v-2.509c0.035-0.308,0.314-0.53,0.622-0.495c0.017,0.002,0.033,0.005,0.049,0.008
		C17.122,10.979,17.988,10.98,17.988,10.98"/>
</g>
</svg>
