<?xml version="1.0" encoding="utf-8"?>
<!-- Generator: Adobe Illustrator 16.0.0, SVG Export Plug-In . SVG Version: 6.00 Build 0)  -->
<!DOCTYPE svg PUBLIC "-//W3C//DTD SVG 1.1//EN" "http://www.w3.org/Graphics/SVG/1.1/DTD/svg11.dtd">
<svg version="1.1" id="Слой_1" xmlns="http://www.w3.org/2000/svg" xmlns:xlink="http://www.w3.org/1999/xlink" x="0px" y="0px"
	 width="31px" height="31px" viewBox="0 0 31 31" enable-background="new 0 0 31 31" xml:space="preserve">
<g>
	<defs>
		<rect id="SVGID_1_" width="31" height="31"/>
	</defs>
	<clipPath id="SVGID_2_">
		<use xlink:href="#SVGID_1_"  overflow="visible"/>
	</clipPath>
	<path clip-path="url(#SVGID_2_)" fill="#2AA1DA" d="M2,0h27c1.105,0,2,0.895,2,2v27c0,1.105-0.895,2-2,2H2c-1.105,0-2-0.895-2-2V2
		C0,0.895,0.895,0,2,0"/>
	<path clip-path="url(#SVGID_2_)" fill="#FFFFFF" d="M19.98,20.1c-0.052,0.551-0.537,0.955-1.088,0.904
		c-0.272-0.025-0.522-0.16-0.692-0.375c-1.09-0.867-2.79-2.114-2.79-2.114s-1.23,2.166-1.45,2.389
		c-0.288,0.243-0.718,0.206-0.961-0.082c-0.014-0.017-0.027-0.033-0.039-0.052c-0.012-0.032-0.022-0.065-0.03-0.1l0.68-3.452
		l4.92-4.833l-6.71,3.829c0,0-3.03-0.906-3.48-1.083c-0.339-0.185-0.464-0.611-0.279-0.95c0.077-0.141,0.2-0.251,0.349-0.312
		c0.64-0.326,11.93-4.638,12.31-4.749c0.38-0.111,1.38-0.4,1.271,0.573C21.88,10.666,20.09,19.566,19.98,20.1"/>
</g>
</svg>
