<svg width="317" height="100" viewBox="0 0 317 100" fill="none" xmlns="http://www.w3.org/2000/svg">
<g clip-path="url(#clip0)">
<path d="M151.5 50.5333C157.593 50.5333 162.533 45.5935 162.533 39.5C162.533 33.4064 157.593 28.4667 151.5 28.4667C145.406 28.4667 140.467 33.4064 140.467 39.5C140.467 45.5935 145.406 50.5333 151.5 50.5333Z" fill="#FCC519"/>
<path d="M151.5 26.2177C152.302 26.2187 153.101 26.2921 153.89 26.4373C153.9 26.2841 153.907 26.128 153.907 25.9712C153.907 23.7781 151.5 22 151.5 22C151.5 22 149.093 23.7781 149.093 25.9712C149.093 26.1292 149.1 26.2841 149.111 26.4373C149.899 26.2921 150.699 26.2187 151.5 26.2177Z" fill="#F07D12"/>
<path d="M151.5 52.7823C152.302 52.7813 153.101 52.7079 153.89 52.563C153.9 52.7159 153.907 52.8708 153.907 53.0288C153.907 55.2216 151.5 57 151.5 57C151.5 57 149.093 55.2221 149.093 53.0288C149.093 52.8708 149.1 52.7159 149.111 52.563C149.899 52.7079 150.699 52.7813 151.5 52.7823Z" fill="#F07D12"/>
<path d="M160.892 30.1079C161.458 30.6754 161.971 31.2928 162.426 31.9526C162.542 31.852 162.657 31.7474 162.768 31.6358C164.319 30.0848 163.874 27.1257 163.874 27.1257C163.874 27.1257 160.915 26.6815 159.364 28.2317C159.252 28.3441 159.148 28.4566 159.047 28.5738C159.707 29.0286 160.325 29.542 160.892 30.1079Z" fill="#F07D12"/>
<path d="M142.108 48.8921C142.675 49.4581 143.293 49.9715 143.953 50.4262C143.852 50.5423 143.747 50.6567 143.636 50.7683C142.085 52.3193 139.126 51.8743 139.126 51.8743C139.126 51.8743 138.681 48.9152 140.232 47.3642C140.344 47.2517 140.457 47.148 140.574 47.0474C141.028 47.7073 141.542 48.3247 142.108 48.8921Z" fill="#F07D12"/>
<path d="M164.782 39.5008C164.781 40.3023 164.708 41.1021 164.563 41.8904C164.716 41.9011 164.871 41.9084 165.029 41.9084C167.222 41.9084 169 39.5011 169 39.5011C169 39.5011 167.222 37.0941 165.029 37.0941C164.871 37.0941 164.716 37.1011 164.563 37.1118C164.708 37.8999 164.781 38.6995 164.782 39.5008Z" fill="#F07D12"/>
<path d="M138.218 39.5009C138.219 40.3024 138.292 41.1021 138.437 41.8904C138.284 41.9011 138.128 41.9084 137.971 41.9084C135.778 41.9073 134 39.5009 134 39.5009C134 39.5009 135.778 37.0939 137.971 37.0939C138.129 37.0939 138.284 37.1009 138.437 37.1116C138.292 37.8998 138.219 38.6995 138.218 39.5009Z" fill="#F07D12"/>
<path d="M160.892 48.8921C160.325 49.458 159.707 49.9714 159.047 50.4262C159.148 50.5423 159.253 50.6567 159.364 50.7683C160.915 52.3193 163.874 51.8743 163.874 51.8743C163.874 51.8743 164.319 48.9152 162.768 47.3642C162.656 47.2517 162.543 47.148 162.426 47.0474C161.971 47.7073 161.458 48.3247 160.892 48.8921Z" fill="#F07D12"/>
<path d="M142.108 30.1079C141.542 30.6754 141.029 31.2928 140.574 31.9526C140.458 31.852 140.343 31.7474 140.232 31.6358C138.681 30.0848 139.126 27.1257 139.126 27.1257C139.126 27.1257 142.085 26.6815 143.636 28.2317C143.748 28.3441 143.852 28.4566 143.953 28.5738C143.293 29.0285 142.675 29.542 142.108 30.1079Z" fill="#F07D12"/>
<path d="M10.43 43.84V40.83H5.32999V53.39C5.32999 54.75 4.11999 55.96 2.65999 55.96C1.15999 55.96 -0.0100098 54.75 -0.0100098 53.39V23.38C-0.0100098 22.02 1.14999 20.86 2.65999 20.86C4.10999 20.86 5.32999 22.02 5.32999 23.38V35.89H10.42V32.93C10.42 26.34 13.62 20.85 21.82 20.85C30.02 20.85 33.22 26.33 33.22 32.93V43.84C33.22 50.53 29.39 55.96 21.82 55.96C14.26 55.96 10.43 50.53 10.43 43.84ZM15.76 32.93V43.84C15.76 48.06 17.65 50.97 21.82 50.97C25.94 50.97 27.88 48.06 27.88 43.84V32.93C27.88 28.66 26.28 25.8 21.82 25.8C17.36 25.8 15.76 28.66 15.76 32.93Z" fill="#424242"/>
<path d="M56.15 35.89H57.31C59.93 31.91 63.03 26.97 65.7 22.94C66.38 21.92 67.15 20.95 68.41 20.95C70.06 20.95 71.08 22.26 71.08 23.52C71.08 23.91 70.98 24.3 70.74 24.73L62.01 38.4L70.74 52.07C70.98 52.51 71.08 52.89 71.08 53.28C71.08 54.54 70.06 55.85 68.41 55.85C67 55.85 66.33 54.73 65.7 53.86L57.31 40.86H56.15V52.21C56.15 54 55.57 55.9 53.48 55.9C51.98 55.9 50.81 54.74 50.81 53.38V40.88H49.65L41.21 53.88C40.48 54.9 39.76 55.87 38.5 55.87C36.85 55.87 35.88 54.56 35.88 53.3C35.88 52.91 35.93 52.52 36.22 52.09C39.08 47.53 42.04 42.97 44.9 38.42C42.04 33.86 39.08 29.3 36.22 24.75C35.93 24.31 35.88 23.93 35.88 23.54C35.88 22.23 36.8 20.97 38.5 20.97C39.81 20.97 40.54 22.04 41.21 22.96L49.65 35.91H50.81V24.51C50.81 22.72 51.34 20.87 53.48 20.87C54.94 20.87 56.15 22.03 56.15 23.39V35.89Z" fill="#424242"/>
<path d="M80.19 35.89H81.89L91.78 22.02C92.36 21.2 93.14 20.86 94.01 20.86C95.61 20.86 96.58 22.36 96.58 23.53C96.58 23.92 96.48 24.31 96.19 24.79L86.3 38.41L96.19 51.99C96.48 52.52 96.58 52.91 96.58 53.3C96.58 54.42 95.61 55.97 94.01 55.97C93.14 55.97 92.36 55.58 91.78 54.81L81.84 40.89H80.19V53.4C80.19 54.76 78.98 55.97 77.52 55.97C76.02 55.97 74.85 54.76 74.85 53.4V23.38C74.85 22.02 76.01 20.86 77.52 20.86C78.97 20.86 80.19 22.02 80.19 23.38V35.89Z" fill="#424242"/>
<path d="M103.32 54.07C102.98 55.23 101.67 55.91 100.8 55.91C99.3 55.91 98.04 54.94 98.04 53.44C98.04 53.2 98.09 52.71 98.14 52.52L107.6 23.76C108.13 22.11 108.96 20.85 110.85 20.85C112.74 20.85 113.52 22.06 114.1 23.76L123.56 52.52C123.66 52.71 123.71 53.2 123.71 53.44C123.71 54.94 122.5 55.91 120.95 55.91C119.2 55.91 118.62 54.7 117.99 52.95L116.44 48.25H105.14L103.32 54.07ZM106.62 43.6H115.01C113.51 38.7 111.86 33.9 110.84 28.86C109.62 33.99 108.07 38.7 106.62 43.6Z" fill="#424242"/>
<path d="M224.7 62.9C220.89 66.42 217.18 69.64 212.97 72.08C207.6 75.4 199.39 79.11 191.87 75.5C186.01 72.96 182.39 65.53 180.54 60.06C177.41 48.14 180.83 36.03 186.01 27.72C189.82 21.37 193.92 16.19 198.9 11.6C204.86 6.13003 218.25 -2.46997 227.92 0.660033C230.56 1.73003 233.1 3.00003 234.56 5.64003C237.01 9.84003 236.91 14.24 236.52 17.85C235.34 27.13 225.58 50.48 212.39 41.2C209.36 38.75 208.39 35.04 207.7 31.52C207.6 30.44 207.5 29.18 208.58 29.18C210.14 29.18 212.49 32.99 216.39 31.42C223.81 28.19 228.99 22.53 230.85 13.54C231.24 10.8 231.24 7.97003 227.82 6.31003C225.77 5.23003 222.45 6.21003 220.98 6.90003C214.53 10.22 210.52 13.93 205.54 18.72C200.56 22.92 197.43 29.47 194.7 35.82C192.65 41.29 190.3 54.38 193.92 61.42C197.34 68.45 205.55 66.01 209.65 64.45C214.63 62.2 218.35 60.25 221.96 56.63C223.43 55.16 225.19 53.7 226.75 51.84C228.61 49.59 229.68 48.23 231.54 46.18C232.81 44.62 236.13 42.27 238.19 45.4C240.24 48.43 236.23 50.78 234.67 52.34C231.25 55.96 228.12 59.68 224.7 62.9Z" fill="#424242"/>
<path d="M238.97 32.91C239.26 32.42 239.36 32.03 239.46 31.54C240.73 28.7 242.2 25 242.59 24.21C245.03 23.73 248.65 27.43 249.72 28.32C250.6 29.78 249.52 31.74 249.13 32.91C247.86 36.52 240.34 48.45 238.48 54.4C237.6 57.53 237.5 59.97 239.36 60.26C245.22 59.97 248.74 53.61 251.57 49.71L252.55 48.34C254.3 45.8 257.43 47.75 255.67 50.2C252.25 55.67 249.81 58.99 247.95 60.56C244.43 63.69 242.58 64.76 240.14 65.25C232.03 66.81 227.93 60.27 230.47 52.84C232.42 46.58 231.64 49.12 238.97 32.91ZM263.1 4.07998H263C262.9 4.07998 262.8 4.17998 262.8 4.36998C262.12 5.44998 260.26 7.49998 259.48 8.37998C258.7 9.15998 258.4 9.93998 257.62 10.82L256.26 13.26C255.18 15.12 254.2 16.58 253.43 18.83C252.16 21.96 249.42 18.15 249.13 17.36C247.86 14.92 248.64 13.06 249.72 10.62L250.89 7.68998C251.67 4.85998 253.53 1.72998 256.95 1.72998C260.47 1.72998 260.47 2.40998 263.11 3.48998V4.07998H263.1Z" fill="#424242"/>
<path d="M260.56 60.26C266.23 59.77 269.84 53.72 272.77 49.71L273.74 48.34C275.5 45.8 278.43 47.56 276.87 50.2C273.55 55.47 271.01 58.89 269.15 60.56C265.53 63.69 263.87 64.76 261.23 65.25C252.15 66.81 248.34 62.13 249.12 56.07C249.41 53.73 252.73 45.32 257.91 37.31C263.38 28.71 267.59 22.75 268.46 21.29C264.16 19.82 261.82 14.84 263.67 9.47002C264.45 7.42002 265.23 7.22002 265.92 7.32002C267.39 7.61002 266.8 8.59002 267.09 9.67002C267.87 12.9 269.43 14.36 272.66 14.65C273.44 13.18 274.71 11.13 275.59 8.10002C276.27 5.36002 276.96 5.17002 279.4 5.46002C280.86 5.75002 282.33 7.02002 283.21 8.59002C284.47 11.23 281.25 15.72 281.65 15.72C283.12 16.02 283.8 15.92 284.97 16.02C286.82 16.02 286.34 18.46 286.04 18.75C285.36 20.61 283.7 20.9 282.43 21C279.99 21.1 279.6 21.49 278.33 21.39C275.5 25.98 273.84 28.43 270.91 33.21L262.11 48.16C261.53 49.14 260.94 50.21 260.45 51.38C257.92 54.69 256.36 60.75 260.56 60.26Z" fill="#424242"/>
<path d="M294.27 64.46C290.07 78.14 279.03 117.03 259.78 91.52C259.09 90.45 258.8 89.86 258.41 89.47C259.19 88.59 259.19 88.69 260.27 89.86C266.82 98.17 275.12 93.38 279.81 83.22C281.86 78.63 283.23 74.92 285.28 68.95C286.36 65.92 287.23 63.09 288.11 60.06L290.26 53.32L290.75 51.85C287.63 54.98 285.77 58.4 282.15 61.23C278.44 64.17 275.9 61.33 274.04 57.62C273.25 55.76 272.48 55.08 272.77 53.03C273.06 50 274.72 46.68 275.9 44.04C277.17 41.21 278.63 38.38 280.1 35.64L282.15 31.44C283.71 28.02 282.64 25.48 285.77 27.82C287.23 29.29 289.58 31.14 289.29 33.49C288.8 37.5 282.45 48.63 280.11 53.03C278.84 55.37 277.96 58.11 280.31 56.54C282.56 54.88 285.29 52.04 286.56 50.88L290.27 47.26C291.74 45.79 292.71 44.91 293.5 43.06C294.97 39.64 296.04 36.22 297.89 33.19C299.06 31.33 299.75 30.26 301.02 28.79C303.85 25.77 306.88 23.22 310.01 28.21C310.4 28.99 311.09 29.87 310.99 30.94C310.5 33.87 307.57 29.47 302.59 41.2C301.22 44.33 298.59 51.07 297.61 54.39C296.51 57.43 295.51 61.04 294.27 64.46Z" fill="#424242"/>
<path d="M259.78 91.52C259.78 91.52 245.69 73.91 287.33 62.69C324.63 52.65 310.99 40.35 310.99 40.35C310.99 40.35 325.88 51.19 309.61 60.16C298.11 66.5 297.62 62.43 277.13 69.27C256.6 76.13 259.76 88.27 263.1 95.38" fill="#424242"/>
</g>
<defs>
<clipPath id="clip0">
<rect width="317" height="100" fill="white"/>
</clipPath>
</defs>
</svg>
